<svg width="55" height="45" viewBox="0 0 55 45" fill="none" xmlns="http://www.w3.org/2000/svg">
<g clip-path="url(#clip0)">
<path d="M54.4123 5.42335C52.4101 6.31117 50.2587 6.91119 48.0006 7.18113C50.3057 5.79956 52.0755 3.61181 52.9089 1.00512C50.7177 2.30545 48.3203 3.22163 45.8203 3.71404C43.7838 1.54456 40.8828 0.188721 37.6718 0.188721C31.5066 0.188721 26.5081 5.187 26.5081 11.3517C26.5081 12.2268 26.607 13.0787 26.7972 13.8959C17.5195 13.4302 9.29387 8.98608 3.78782 2.23216C2.8271 3.88089 2.2766 5.79871 2.2766 7.84427C2.2766 11.7173 4.24756 15.134 7.24279 17.136C5.47003 17.0805 3.73627 16.6017 2.18627 15.7396C2.18563 15.7863 2.18563 15.8331 2.18563 15.8801C2.18563 21.2888 6.0336 25.8008 11.1403 26.8263C9.4964 27.2734 7.77209 27.3388 6.09907 27.0176C7.51952 31.4526 11.6423 34.6799 16.5271 34.7703C12.7065 37.7642 7.89297 39.549 2.66301 39.549C1.76181 39.549 0.87336 39.4961 0 39.393C4.94025 42.5604 10.8081 44.4085 17.1122 44.4085C37.6459 44.4085 48.8741 27.3981 48.8741 12.6464C48.8741 12.1622 48.8635 11.6808 48.8418 11.2021C51.0273 9.62221 52.9137 7.66534 54.4123 5.42335Z" fill="#55ACEE"/>
</g>
<defs>
<clipPath id="clip0">
<rect width="54.4123" height="44.4225" fill="white" transform="translate(0 0.0141602)"/>
</clipPath>
</defs>
</svg>
