<svg width="232" height="232" viewBox="0 0 232 232" fill="none" xmlns="http://www.w3.org/2000/svg">
<path d="M228.375 217.5H3.625C1.45 217.5 0 219.312 0 221.125V228.375C0 230.188 1.45 232 3.625 232H228.375C230.188 232 232 230.188 232 228.375V221.125C232 219.312 230.188 217.5 228.375 217.5Z" fill="#B2C1C0"/>
<path d="M232 61.625C232 63.4375 230.188 65.25 228.375 65.25H3.625C1.45 65.25 0 63.4375 0 61.625V10.875C0 9.0625 1.45 7.25 3.625 7.25H228.375C230.188 7.25 232 9.0625 232 10.875V61.625Z" fill="#428BC1"/>
<path d="M7.25 65.25H224.75V217.5H7.25V65.25Z" fill="#62727A"/>
<path d="M7.25 72.5H224.75V108.75H7.25V72.5Z" fill="white"/>
<path d="M7.25 116H224.75V152.25H7.25V116Z" fill="white"/>
<path d="M7.25 0H224.75V7.25H7.25V0Z" fill="#D0D0D0"/>
<path d="M82.65 21.7512C82.65 31.9012 76.85 40.6012 68.5125 44.5887C70.6875 41.3262 72.1375 37.7012 72.1375 33.3512C72.1375 22.8387 63.4375 14.1387 52.925 14.1387C42.775 14.1387 34.4375 22.1137 33.7125 31.9012C32.2625 29.0012 31.5375 25.7387 31.5375 21.7512H14.5C14.5 41.6887 30.8125 58.0012 50.75 58.0012C70.6875 58.0012 87 41.6887 87 21.7512H82.65ZM52.925 21.0262C59.8125 21.0262 65.6125 26.8262 65.6125 33.7137C65.6125 40.6012 59.8125 46.4012 52.925 46.4012C46.0375 46.4012 40.2375 40.6012 40.2375 33.7137C40.2375 26.4637 45.675 21.0262 52.925 21.0262Z" fill="#FFE62E"/>
<path d="M16.3125 79.75H30.8125V101.5H16.3125V79.75Z" fill="#B4D7EE"/>
<path d="M38.0625 79.75H52.5625V101.5H38.0625V79.75Z" fill="#B4D7EE"/>
<path d="M70.6875 79.75H85.1875V101.5H70.6875V79.75Z" fill="#B4D7EE"/>
<path d="M92.4375 79.75H106.938V101.5H92.4375V79.75Z" fill="#B4D7EE"/>
<path d="M125.062 79.75H139.562V101.5H125.062V79.75Z" fill="#B4D7EE"/>
<path d="M146.812 79.75H161.312V101.5H146.812V79.75Z" fill="#B4D7EE"/>
<path d="M179.438 79.75H193.938V101.5H179.438V79.75Z" fill="#B4D7EE"/>
<path d="M201.188 79.75H215.688V101.5H201.188V79.75Z" fill="#B4D7EE"/>
<path d="M16.3125 123.25H30.8125V145H16.3125V123.25Z" fill="#B4D7EE"/>
<path d="M38.0625 123.25H52.5625V145H38.0625V123.25Z" fill="#B4D7EE"/>
<path d="M70.6875 123.25H85.1875V145H70.6875V123.25Z" fill="#B4D7EE"/>
<path d="M92.4375 123.25H106.938V145H92.4375V123.25Z" fill="#B4D7EE"/>
<path d="M125.062 123.25H139.562V145H125.062V123.25Z" fill="#B4D7EE"/>
<path d="M146.812 123.25H161.312V145H146.812V123.25Z" fill="#B4D7EE"/>
<path d="M179.438 123.25H193.938V145H179.438V123.25Z" fill="#B4D7EE"/>
<path d="M201.188 123.25H215.688V145H201.188V123.25Z" fill="#B4D7EE"/>
<path d="M76.125 159.5V217.5H83.375V174H148.625V217.5H155.875V159.5H76.125Z" fill="#FFE62E"/>
<path d="M97.875 174H112.375V217.5H97.875V174Z" fill="#B4D7EE"/>
<path d="M119.625 174H134.125V217.5H119.625V174Z" fill="#B4D7EE"/>
<path d="M112.375 174H119.625V217.5H112.375V174Z" fill="white"/>
<path d="M134.125 174H141.375V217.5H134.125V174Z" fill="white"/>
<path d="M90.625 174H97.875V217.5H90.625V174Z" fill="white"/>
<path d="M94.25 192.125H137.75V199.375H94.25V192.125Z" fill="white"/>
<path d="M155.875 174H213.875V210.25H155.875V174Z" fill="white"/>
<path d="M18.125 174H76.125V210.25H18.125V174Z" fill="white"/>
<path d="M155.875 181.25H206.625V203H155.875V181.25Z" fill="#B4D7EE"/>
<path d="M25.375 181.25H76.125V203H25.375V181.25Z" fill="#B4D7EE"/>
<path d="M47.125 177.625H54.375V206.625H47.125V177.625Z" fill="white"/>
<path d="M177.625 177.625H184.875V206.625H177.625V177.625Z" fill="white"/>
<path d="M101.5 19.2113C103.675 18.8488 106.937 18.4863 111.65 18.4863C116.362 18.4863 119.625 19.5738 121.8 21.3863C123.975 23.1988 125.425 26.0988 125.425 29.3613C125.425 32.6238 124.337 35.8863 122.525 37.6988C119.987 40.2363 116.363 41.3238 112.012 41.3238H109.475V54.0113H102.225V19.2113H101.5ZM108.75 35.1613C109.475 35.1613 110.2 35.5238 111.288 35.5238C115.275 35.5238 117.813 33.3488 117.813 29.7238C117.813 26.4613 115.637 24.6488 112.012 24.6488C110.562 24.6488 109.475 24.6488 109.113 25.0113V35.1613H108.75Z" fill="#FFE62E"/>
<path d="M160.949 35.8875C160.949 47.4875 154.424 54.375 144.999 54.375C135.212 54.375 129.774 46.4 129.774 36.6125C129.774 26.1 135.937 18.125 145.724 18.125C155.512 18.125 160.949 26.1 160.949 35.8875ZM137.387 36.25C137.387 43.1375 140.287 47.85 145.362 47.85C150.437 47.85 153.337 42.775 153.337 35.8875C153.337 29.725 150.437 24.2875 145.362 24.2875C140.287 24.2875 137.387 29.3625 137.387 36.25Z" fill="#FFE62E"/>
<path d="M167.474 45.675C169.649 46.7625 172.549 47.85 175.812 47.85C179.074 47.85 180.887 46.4 180.887 44.225C180.887 42.05 179.437 40.9625 175.449 39.15C170.012 36.975 166.387 33.7125 166.387 28.6375C166.387 22.475 171.099 18.125 178.712 18.125C182.337 18.125 185.237 18.85 187.049 19.9375L185.237 26.4625C183.787 25.7375 181.612 24.65 178.349 24.65C175.087 24.65 173.637 26.1 173.637 27.9125C173.637 30.0875 175.449 31.175 179.799 32.9875C185.599 35.1625 188.499 38.425 188.499 43.5C188.499 49.3 184.149 54.375 175.449 54.375C171.824 54.375 167.837 53.2875 166.024 52.2L167.474 45.675Z" fill="#FFE62E"/>
<path d="M201.186 25.3727H192.486V18.8477H217.499V25.3727H208.436V53.6477H201.186V25.3727Z" fill="#FFE62E"/>
</svg>
