<svg width="113" height="113" viewBox="0 0 113 113" fill="none" xmlns="http://www.w3.org/2000/svg">
<path d="M75.8419 34.5206V29.2456C75.8419 28.7621 75.4463 28.3665 74.9628 28.3665H32.7628C32.2792 28.3665 31.8836 28.7621 31.8836 29.2456V34.5206C31.8836 35.0042 32.2792 35.3998 32.7628 35.3998H74.9628C75.4463 35.3998 75.8419 35.0042 75.8419 34.5206ZM32.7628 44.1915C32.2792 44.1915 31.8836 44.5871 31.8836 45.0706V50.3456C31.8836 50.8292 32.2792 51.2248 32.7628 51.2248H52.9836C53.4672 51.2248 53.8628 50.8292 53.8628 50.3456V45.0706C53.8628 44.5871 53.4672 44.1915 52.9836 44.1915H32.7628ZM74.0836 56.9394C60.973 56.9394 50.3461 67.5663 50.3461 80.6769C50.3461 93.7874 60.973 104.414 74.0836 104.414C87.1942 104.414 97.8211 93.7874 97.8211 80.6769C97.8211 67.5663 87.1942 56.9394 74.0836 56.9394ZM85.8974 92.4907C82.7434 95.6447 78.5454 97.381 74.0836 97.381C69.6218 97.381 65.4238 95.6447 62.2698 92.4907C59.1158 89.3367 57.3794 85.1386 57.3794 80.6769C57.3794 76.2151 59.1158 72.0171 62.2698 68.8631C65.4238 65.7091 69.6218 63.9727 74.0836 63.9727C78.5454 63.9727 82.7434 65.7091 85.8974 68.8631C89.0514 72.0171 90.7878 76.2151 90.7878 80.6769C90.7878 85.1386 89.0514 89.3367 85.8974 92.4907ZM83.8643 72.3248H78.996C78.7102 72.3248 78.4465 72.4567 78.2816 72.6874L71.3032 82.3363L68.7647 78.8306C68.6833 78.7174 68.576 78.6253 68.4517 78.5622C68.3274 78.4991 68.1897 78.4668 68.0503 78.468H63.2039C62.4896 78.468 62.072 79.2812 62.4896 79.8636L70.5999 91.084C70.9516 91.5675 71.6659 91.5675 72.0176 91.084L84.5677 73.7205C84.9963 73.138 84.5787 72.3248 83.8643 72.3248ZM48.5878 93.8644H23.0919V16.4977H84.6336V54.3019C84.6336 54.7854 85.0292 55.181 85.5128 55.181H91.6669C92.1505 55.181 92.5461 54.7854 92.5461 54.3019V12.1019C92.5461 10.1567 90.9746 8.58521 89.0294 8.58521H18.6961C16.751 8.58521 15.1794 10.1567 15.1794 12.1019V98.2602C15.1794 100.205 16.751 101.777 18.6961 101.777H48.5878C49.0713 101.777 49.4669 101.381 49.4669 100.898V94.7435C49.4669 94.26 49.0713 93.8644 48.5878 93.8644Z" fill="white"/>
</svg>
