<svg width="112" height="112" viewBox="0 0 112 112" fill="none" xmlns="http://www.w3.org/2000/svg">
<path d="M24.5 56.0002L68.6 11.9002C71.4 9.1002 75.6 7.0002 80.5 7.0002C85.4 7.0002 89.6 9.1002 93.1 11.9002C100.1 18.9002 100.1 30.1002 93.1 36.4002L73.5 56.0002H83.3L97.3 42.0002C107.1 32.2002 107.1 16.8002 97.3 7.7002C92.4 2.8002 86.1 0.700195 79.8 0.700195C73.5 0.700195 67.9 2.1002 63 7.0002L18.9 51.8002C16.8 53.2002 15.4 55.3002 14 58.1002C17.5 56.7002 21 56.0002 24.5 56.0002Z" fill="white"/>
<path d="M51.0988 39.2L34.2988 56H67.1988L51.0988 39.2Z" fill="white"/>
<path d="M87.5 62.9998H24.5C11.2 62.9998 0 74.1998 0 87.4998C0 100.8 11.2 112 24.5 112H87.5C100.8 112 112 100.8 112 87.4998C112 74.1998 100.8 62.9998 87.5 62.9998ZM87.5 105H56V76.9998H24.5C16.8 76.9998 10.5 81.1998 7 85.3998C8.4 76.9998 15.4 69.9998 24.5 69.9998H87.5C97.3 69.9998 105 77.6998 105 87.4998C105 97.2998 97.3 105 87.5 105Z" fill="white"/>
</svg>
