<svg width="88" height="96" viewBox="0 0 88 96" fill="none" xmlns="http://www.w3.org/2000/svg">
<path d="M57.5 61.5V68.25H64.25V61.5H57.5Z" fill="white"/>
<path d="M18.269 1.4925L1.394 14.9925C0.2735 15.8835 0.125 17.4225 0.125 18.7725V31.125C0.125 34.9253 1.3805 38.4285 3.5 41.25V91.875C3.5 92.7701 3.85558 93.6286 4.48852 94.2615C5.12145 94.8944 5.97989 95.25 6.875 95.25H17V58.125C17 57.2299 17.3556 56.3714 17.9885 55.7385C18.6215 55.1056 19.4799 54.75 20.375 54.75H40.625C41.5201 54.75 42.3785 55.1056 43.0115 55.7385C43.6444 56.3714 44 57.2299 44 58.125V95.25H81.125C82.0201 95.25 82.8786 94.8944 83.5115 94.2615C84.1444 93.6286 84.5 92.7701 84.5 91.875V41.25C86.6195 38.4285 87.875 34.9253 87.875 31.125V18.7455C87.875 17.3955 87.7265 15.8835 86.606 14.9925L69.731 1.4925C69.1336 1.0132 68.3909 0.751364 67.625 0.75H20.375C19.6091 0.751364 18.8664 1.0132 18.269 1.4925ZM6.875 31.125V21H27.125V31.125C27.125 33.8103 26.0583 36.3857 24.1595 38.2845C22.2607 40.1833 19.6853 41.25 17 41.25C14.3147 41.25 11.7394 40.1833 9.84054 38.2845C7.94174 36.3857 6.875 33.8103 6.875 31.125ZM33.875 31.125V21H54.125V31.125C54.125 33.8103 53.0583 36.3857 51.1595 38.2845C49.2607 40.1833 46.6853 41.25 44 41.25C41.3147 41.25 38.7393 40.1833 36.8405 38.2845C34.9417 36.3857 33.875 33.8103 33.875 31.125ZM60.875 31.125V21H81.125V31.125C81.125 33.8103 80.0583 36.3857 78.1595 38.2845C76.2607 40.1833 73.6853 41.25 71 41.25C68.3147 41.25 65.7393 40.1833 63.8405 38.2845C61.9417 36.3857 60.875 33.8103 60.875 31.125ZM13.1187 14.25L21.5563 7.5H30.7025L28.1713 14.25H13.1187ZM35.3735 14.25L37.9048 7.5H50.0075L52.2552 14.25H35.3735ZM57.122 7.5H66.437L74.8745 14.25H59.3698L57.122 7.5ZM50.75 58.125C50.75 57.2299 51.1056 56.3714 51.7385 55.7385C52.3714 55.1056 53.2299 54.75 54.125 54.75H67.625C68.5201 54.75 69.3786 55.1056 70.0115 55.7385C70.6444 56.3714 71 57.2299 71 58.125V71.625C71 72.5201 70.6444 73.3786 70.0115 74.0115C69.3786 74.6444 68.5201 75 67.625 75H54.125C53.2299 75 52.3714 74.6444 51.7385 74.0115C51.1056 73.3786 50.75 72.5201 50.75 71.625V58.125Z" fill="white"/>
<path d="M23.75 95.25H37.25V61.5H23.75V95.25Z" fill="white"/>
</svg>
