<svg width="112" height="112" viewBox="0 0 112 112" fill="none" xmlns="http://www.w3.org/2000/svg">
<path d="M104.72 58.1348L94.2198 33.6348C93.9518 33.0021 93.5036 32.4624 92.931 32.0827C92.3584 31.7031 91.6868 31.5003 90.9998 31.4998H80.4998V24.4998C80.4998 23.5715 80.131 22.6813 79.4746 22.0249C78.8183 21.3685 77.928 20.9998 76.9998 20.9998H10.4998C9.5715 20.9998 8.68126 21.3685 8.02488 22.0249C7.3685 22.6813 6.99976 23.5715 6.99976 24.4998V83.9998C6.99976 84.928 7.3685 85.8183 8.02488 86.4746C8.68126 87.131 9.5715 87.4998 10.4998 87.4998H17.9898C18.7957 90.4656 20.5553 93.0837 22.9968 94.9503C25.4384 96.8169 28.4264 97.8283 31.4998 97.8283C34.5731 97.8283 37.5611 96.8169 40.0027 94.9503C42.4442 93.0837 44.2038 90.4656 45.0098 87.4998H66.9898C67.7957 90.4656 69.5553 93.0837 71.9968 94.9503C74.4384 96.8169 77.4264 97.8283 80.4998 97.8283C83.5731 97.8283 86.5611 96.8169 89.0027 94.9503C91.4443 93.0837 93.2038 90.4656 94.0098 87.4998H101.5C102.428 87.4998 103.318 87.131 103.975 86.4746C104.631 85.8183 105 84.928 105 83.9998V59.4998C104.999 59.0306 104.904 58.5664 104.72 58.1348ZM80.4998 38.4998H88.6898L96.1798 55.9998H80.4998V38.4998ZM31.4998 90.9998C30.1153 90.9998 28.7619 90.5892 27.6108 89.82C26.4596 89.0509 25.5624 87.9576 25.0326 86.6785C24.5028 85.3995 24.3642 83.992 24.6343 82.6341C24.9044 81.2763 25.571 80.029 26.55 79.05C27.529 78.071 28.7763 77.4044 30.1341 77.1343C31.492 76.8642 32.8995 77.0028 34.1785 77.5326C35.4576 78.0624 36.5509 78.9596 37.32 80.1108C38.0892 81.2619 38.4998 82.6153 38.4998 83.9998C38.4998 85.8563 37.7623 87.6367 36.4495 88.9495C35.1367 90.2623 33.3563 90.9998 31.4998 90.9998ZM66.9898 80.4998H45.0098C44.2038 77.534 42.4442 74.9158 40.0027 73.0492C37.5611 71.1826 34.5731 70.1713 31.4998 70.1713C28.4264 70.1713 25.4384 71.1826 22.9968 73.0492C20.5553 74.9158 18.7957 77.534 17.9898 80.4998H13.9998V27.9998H73.4998V71.9598C71.906 72.8848 70.5105 74.1153 69.3934 75.5808C68.2763 77.0463 67.4594 78.7179 66.9898 80.4998ZM80.4998 90.9998C79.1153 90.9998 77.7619 90.5892 76.6108 89.82C75.4596 89.0509 74.5624 87.9576 74.0326 86.6785C73.5028 85.3995 73.3642 83.992 73.6343 82.6341C73.9044 81.2763 74.571 80.029 75.55 79.05C76.529 78.071 77.7763 77.4044 79.1341 77.1343C80.492 76.8642 81.8995 77.0028 83.1785 77.5326C84.4576 78.0624 85.5509 78.9596 86.32 80.1108C87.0892 81.2619 87.4998 82.6153 87.4998 83.9998C87.4998 85.8563 86.7623 87.6367 85.4495 88.9495C84.1367 90.2623 82.3563 90.9998 80.4998 90.9998ZM97.9998 80.4998H94.0098C93.2358 77.5021 91.49 74.8455 89.0455 72.9457C86.601 71.0458 83.5957 70.0098 80.4998 69.9998V62.9998H97.9998V80.4998Z" fill="white"/>
</svg>
