<svg width="148" height="148" viewBox="0 0 148 148" fill="none" xmlns="http://www.w3.org/2000/svg">
<mask id="mask0" mask-type="alpha" maskUnits="userSpaceOnUse" x="18" y="88" width="111" height="44">
<path fill-rule="evenodd" clip-rule="evenodd" d="M44.0017 105.11C42.1415 106.249 40.7439 108.01 40.0558 110.08C39.3677 112.15 39.4335 114.397 40.2414 116.423C41.0493 118.449 42.5474 120.125 44.4711 121.154C46.3948 122.183 48.6201 122.499 50.7541 122.046C52.8881 121.593 54.7934 120.4 56.1333 118.679C57.4732 116.957 58.1615 114.817 58.0767 112.638C57.9918 110.458 57.1393 108.378 55.6696 106.766C54.2 105.154 52.2078 104.113 50.0451 103.827C49.9295 103.414 49.8236 102.999 49.7275 102.581C49.3058 100.676 48.9766 98.7522 48.7408 96.8154C48.4861 94.858 48.342 92.8877 48.3092 90.9139C48.3028 90.3719 48.3182 89.8298 48.3554 89.289C49.5394 88.9499 50.7296 88.6415 51.9167 88.3733C53.2764 88.065 54.0842 89.6683 54.7348 90.9694L55 91.4905H91.2261C91.9322 90.1524 93.5324 88.0187 95.0833 88.3733C96.736 88.7495 98.3979 89.1965 100.044 89.7053L100.035 89.7115C100.029 89.7053 100.029 89.7053 100.035 89.7176C100.047 89.7608 100.115 89.9612 100.183 90.396C100.26 90.8955 100.313 91.543 100.337 92.323C100.368 94.1092 100.292 95.8956 100.109 97.6726C99.9242 99.575 99.6497 101.416 99.3414 102.868C99.2736 103.192 99.2057 103.485 99.1379 103.75H95.0833C94.5109 103.75 93.9498 103.91 93.463 104.211C92.9761 104.512 92.5827 104.943 92.3268 105.455L89.2435 111.622C89.029 112.049 88.9171 112.521 88.9167 113V119.167C88.9167 119.984 89.2415 120.769 89.8197 121.347C90.398 121.925 91.1823 122.25 92 122.25H98.1667V116.083H95.0833V113.728L96.9888 109.917H105.511L107.417 113.728V116.083H104.333V122.25H110.5C111.318 122.25 112.102 121.925 112.68 121.347C113.258 120.769 113.583 119.984 113.583 119.167V113C113.583 112.521 113.471 112.049 113.257 111.622L110.173 105.455C109.917 104.943 109.524 104.512 109.037 104.211C108.55 103.91 107.989 103.75 107.417 103.75H105.456C105.786 102.106 106.06 100.189 106.245 98.2646C106.448 96.1865 106.553 94.0312 106.501 92.1504L106.498 92.064C118.794 97.2594 129 105.803 129 114.757V131.5H18V114.757C18 105.409 29.1308 96.504 42.1456 91.3949C42.1795 93.3128 42.3614 95.4804 42.6235 97.5801C42.9072 99.8433 43.2926 102.1 43.7181 103.956C43.8106 104.354 43.9031 104.74 44.0017 105.11ZM48.8333 116.129C50.4922 116.129 51.9167 114.773 51.9167 113C51.9167 111.23 50.4922 109.87 48.8333 109.87C47.1745 109.87 45.75 111.227 45.75 113C45.75 114.77 47.1745 116.129 48.8333 116.129Z" fill="white"/>
</mask>
<g mask="url(#mask0)">
<path fill-rule="evenodd" clip-rule="evenodd" d="M44.0017 105.11C42.1415 106.249 40.7439 108.01 40.0558 110.08C39.3677 112.15 39.4335 114.397 40.2414 116.423C41.0493 118.449 42.5474 120.125 44.4711 121.154C46.3948 122.183 48.6201 122.499 50.7541 122.046C52.8881 121.593 54.7934 120.4 56.1333 118.679C57.4732 116.957 58.1615 114.817 58.0767 112.638C57.9918 110.458 57.1393 108.378 55.6696 106.766C54.2 105.154 52.2078 104.113 50.0451 103.827C49.9295 103.414 49.8236 102.999 49.7275 102.581C49.3058 100.676 48.9766 98.7522 48.7408 96.8154C48.4861 94.858 48.342 92.8877 48.3092 90.9139C48.3028 90.3719 48.3182 89.8298 48.3554 89.289C49.5394 88.9499 50.7296 88.6415 51.9167 88.3733C53.2764 88.065 54.0842 89.6683 54.7348 90.9694L55 91.4905H91.2261C91.9322 90.1524 93.5324 88.0187 95.0833 88.3733C96.736 88.7495 98.3979 89.1965 100.044 89.7053L100.035 89.7115C100.029 89.7053 100.029 89.7053 100.035 89.7176C100.047 89.7608 100.115 89.9612 100.183 90.396C100.26 90.8955 100.313 91.543 100.337 92.323C100.368 94.1092 100.292 95.8956 100.109 97.6726C99.9242 99.575 99.6497 101.416 99.3414 102.868C99.2736 103.192 99.2057 103.485 99.1379 103.75H95.0833C94.5109 103.75 93.9498 103.91 93.463 104.211C92.9761 104.512 92.5827 104.943 92.3268 105.455L89.2435 111.622C89.029 112.049 88.9171 112.521 88.9167 113V119.167C88.9167 119.984 89.2415 120.769 89.8197 121.347C90.398 121.925 91.1823 122.25 92 122.25H98.1667V116.083H95.0833V113.728L96.9888 109.917H105.511L107.417 113.728V116.083H104.333V122.25H110.5C111.318 122.25 112.102 121.925 112.68 121.347C113.258 120.769 113.583 119.984 113.583 119.167V113C113.583 112.521 113.471 112.049 113.257 111.622L110.173 105.455C109.917 104.943 109.524 104.512 109.037 104.211C108.55 103.91 107.989 103.75 107.417 103.75H105.456C105.786 102.106 106.06 100.189 106.245 98.2646C106.448 96.1865 106.553 94.0312 106.501 92.1504L106.498 92.064C118.794 97.2594 129 105.803 129 114.757V131.5H18V114.757C18 105.409 29.1308 96.504 42.1456 91.3949C42.1795 93.3128 42.3614 95.4804 42.6235 97.5801C42.9072 99.8433 43.2926 102.1 43.7181 103.956C43.8106 104.354 43.9031 104.74 44.0017 105.11ZM48.8333 116.129C50.4922 116.129 51.9167 114.773 51.9167 113C51.9167 111.23 50.4922 109.87 48.8333 109.87C47.1745 109.87 45.75 111.227 45.75 113C45.75 114.77 47.1745 116.129 48.8333 116.129Z" fill="white"/>
<path d="M44.0018 105.11L47.227 110.367L51.1335 107.968L49.9619 103.537L44.0018 105.11ZM50.042 103.827L44.1035 105.486L45.1981 109.414L49.2435 109.941L50.042 103.827ZM49.7275 102.581L55.74 101.203L49.7275 102.581ZM48.7409 96.8154L54.8644 96.0507L48.744 96.8154H48.7409ZM48.3092 90.9139L42.1425 90.9539L48.3092 90.9139ZM48.3555 89.2889L46.6535 83.3628L42.528 84.5468L42.2042 88.8264L48.3555 89.2889ZM51.9167 88.3732L50.5477 82.3607L51.9167 88.3732ZM54.7349 90.9694L60.2479 88.2067L54.7349 90.9694ZM55 91.4904L49.5425 94.361L51.2785 97.6571H55V91.4904ZM67.5307 91.4904V97.6571V91.4904ZM73.1609 91.4904V97.6571V91.4904ZM73.1609 91.4904L73.164 85.3238V91.4904H73.1609ZM78.6955 91.4904V85.3238V91.4904ZM91.2261 91.4904V97.6571H94.9508L96.6836 94.361L91.2261 91.4904ZM95.0834 88.3732L96.4524 82.3607L95.0834 88.3732ZM100.044 89.7052L102.801 95.2244L116.522 88.3609L101.87 83.816L100.044 89.7052ZM100.035 89.7114L94.5191 92.474L97.2818 97.9839L102.792 95.2274L100.035 89.7114ZM100.035 89.7175L106.042 88.3269L105.974 88.034L105.881 87.7504L100.035 89.7175ZM100.035 89.7175L94.0258 91.105L94.0936 91.401L94.1923 91.6909L100.035 89.7175ZM100.035 89.7175L105.878 87.7504V87.7442L100.035 89.7175ZM100.183 90.3959L106.279 89.4585L100.183 90.3989V90.3959ZM100.337 92.3229L94.1707 92.4956L100.337 92.3229ZM100.109 97.6725L93.9703 97.0774L100.106 97.6725H100.109ZM99.3415 102.868L105.376 104.148L99.3415 102.868ZM99.138 103.75V109.916H103.942L105.117 105.261L99.138 103.75ZM92.3238 105.455L97.843 108.211L92.3238 105.455ZM89.2405 111.622L94.7596 114.378L89.2405 111.622ZM98.1667 122.25V128.416H104.333V122.25H98.1667ZM98.1667 116.083H104.333V109.916H98.1667V116.083ZM95.0834 116.083H88.9167V122.25H95.0834V116.083ZM95.0834 113.727L89.5673 110.971L88.9167 112.272V113.727H95.0834ZM96.9889 109.916V103.75H93.1779L91.4728 107.157L96.9889 109.916ZM105.511 109.916L111.027 107.157L109.322 103.75H105.511V109.916ZM107.417 113.727H113.583V112.272L112.933 110.971L107.417 113.727ZM107.417 116.083V122.25H113.583V116.083H107.417ZM104.333 116.083V109.916H98.1667V116.083H104.333ZM104.333 122.25H98.1667V128.416H104.333V122.25ZM113.257 111.622L118.776 108.862L113.257 111.622ZM110.173 105.455L115.692 102.695L110.173 105.455ZM105.456 103.75L99.4124 102.538L97.9324 109.916H105.456V103.75ZM106.245 98.2645L112.384 98.8596L106.248 98.2645H106.245ZM106.501 92.1503L112.665 91.9776V91.9684L106.498 92.1503H106.501ZM106.498 92.0639L108.897 86.3844L100.051 82.6474L100.334 92.2459L106.498 92.0639ZM129 131.5V137.666H135.167V131.5H129ZM18 131.5H11.8334V137.666H18V131.5ZM42.1456 91.3949L48.3123 91.2808L48.1489 82.4131L39.8917 85.6537L42.1456 91.3949ZM42.6235 97.58L36.5062 98.3416L42.6235 97.5831V97.58ZM43.7181 103.956L37.7056 105.332L43.7181 103.956ZM45.75 113C45.75 111.896 46.3266 110.919 47.227 110.367L40.7735 99.8555C38.525 101.234 36.6678 103.166 35.3797 105.468C34.0916 107.769 33.4157 110.362 33.4167 113H45.75ZM48.8334 116.083C48.0156 116.083 47.2314 115.758 46.6531 115.18C46.0749 114.602 45.75 113.818 45.75 113H33.4167C33.4167 115.024 33.8155 117.029 34.5902 118.899C35.365 120.77 36.5006 122.469 37.9321 123.901C39.3637 125.333 41.0632 126.468 42.9337 127.243C44.8041 128.018 46.8088 128.416 48.8334 128.416V116.083ZM51.9167 113C51.9167 113.818 51.5919 114.602 51.0136 115.18C50.4354 115.758 49.6511 116.083 48.8334 116.083V128.416C50.8579 128.416 52.8626 128.018 54.7331 127.243C56.6035 126.468 58.303 125.333 59.7346 123.901C61.1662 122.469 62.3018 120.77 63.0765 118.899C63.8513 117.029 64.25 115.024 64.25 113H51.9167ZM49.2435 109.941C49.984 110.04 50.6633 110.405 51.155 110.968C51.6467 111.531 51.9174 112.253 51.9167 113H64.25C64.2504 109.258 62.8898 105.644 60.422 102.831C57.9542 100.018 54.5476 98.1991 50.8375 97.7126L49.2435 109.941ZM55.9805 102.171C55.893 101.85 55.8128 101.527 55.74 101.203L43.715 103.956C43.8415 104.502 43.971 105.014 44.1035 105.486L55.9805 102.171ZM55.74 101.203C55.3659 99.5016 55.0737 97.7832 54.8644 96.0538L42.6235 97.58C42.9072 99.8432 43.2926 102.1 43.7181 103.956L55.74 101.203ZM54.8644 96.0538C54.6374 94.3358 54.5066 92.6064 54.4728 90.8738L42.1395 90.9539C42.1518 92.9735 42.343 95.3169 42.6235 97.58L54.8644 96.0538ZM54.4728 90.8738C54.4685 90.5004 54.4788 90.1271 54.5036 89.7545L42.2042 88.8264C42.1549 89.5345 42.1344 90.2442 42.1425 90.9539L54.4759 90.8769L54.4728 90.8738ZM50.5477 82.3576C49.2465 82.6567 47.9454 82.9897 46.6535 83.3628L50.0544 95.2182C51.1335 94.9068 52.2127 94.6293 53.2857 94.3857L50.5477 82.3607V82.3576ZM60.2479 88.2067C60.0135 87.7349 59.3105 86.258 58.2622 85.0401C57.0905 83.6834 54.408 81.4789 50.5477 82.3576L53.2857 94.3826C52.2711 94.6101 51.21 94.4997 50.264 94.0681C49.7519 93.8424 49.2936 93.5103 48.9197 93.0938C48.7902 92.9396 48.7717 92.881 48.8611 93.0383C48.9505 93.1924 49.0461 93.3836 49.2219 93.7351L60.2479 88.2067ZM60.4575 88.6168C60.3864 88.4807 60.3165 88.344 60.2479 88.2067L49.2219 93.7351C49.3082 93.9016 49.4223 94.1359 49.5425 94.361L60.4575 88.6168ZM67.5307 85.3238H55V97.6571H67.5307V85.3238ZM73.164 85.3238H67.5307V97.6571H73.1609V85.3238H73.164ZM73.164 85.3238V97.6571V85.3238ZM73.164 85.3238V97.6571V85.3238ZM73.164 85.3238V97.6571V85.3238ZM73.164 85.3238V97.6571V85.3238ZM73.164 85.3238V97.6571V85.3238ZM73.164 85.3238V97.6571V85.3238ZM78.6955 85.3238H73.1609V97.6571H78.6955L78.6924 85.3238H78.6955ZM91.2261 85.3238H78.6955V97.6571H91.2261V85.3238ZM96.4524 82.3576C92.4595 81.4511 89.5673 83.8839 88.5621 84.8551C87.4431 85.9572 86.5018 87.2262 85.7717 88.6168L96.6836 94.361C96.7914 94.1637 96.9173 93.9768 97.0598 93.8029L97.1122 93.7413C97.1122 93.7413 97.066 93.7844 96.9765 93.8523C96.816 93.9656 96.6445 94.0627 96.4647 94.1421C95.5982 94.5178 94.6334 94.6033 93.7144 94.3857L96.4524 82.3607V82.3576ZM101.873 83.816C100.078 83.261 98.2654 82.7708 96.4524 82.3576L93.7144 94.3826C95.2098 94.7249 96.7145 95.1319 98.216 95.5974L101.873 83.8191V83.816ZM102.792 95.2274L102.801 95.2213L97.288 84.1922L97.2756 84.1953L102.792 95.2274ZM105.878 87.7504L105.9 87.8089L105.952 87.9816C105.964 88.0248 105.989 88.1111 106.014 88.2221C106.156 88.7955 106.215 89.3863 106.19 89.9765C106.186 90.106 106.18 91.9468 104.787 93.6334C103.916 94.6877 102.72 95.4228 101.386 95.7231C100.052 96.0234 98.6559 95.8718 97.4175 95.2922C96.2951 94.768 95.6291 94.0311 95.5089 93.9016C95.105 93.4638 94.8552 93.0568 94.8244 93.0105C94.7654 92.9175 94.7089 92.8229 94.6548 92.7269C94.5993 92.6282 94.5561 92.548 94.55 92.5295L94.5191 92.474L105.548 86.9487L105.517 86.887L105.409 86.6897C105.356 86.5926 105.299 86.497 105.24 86.4029C105.209 86.3567 104.962 85.9528 104.552 85.5149C104.429 85.3824 103.766 84.6454 102.641 84.1213C101.402 83.5428 100.007 83.3921 98.6735 83.6929C97.3401 83.9937 96.1446 84.729 95.2745 85.7832C93.884 87.4698 93.8747 89.3105 93.8716 89.44C93.847 89.9519 93.8963 90.3496 93.9179 90.5069C93.9591 90.8197 94.0241 91.1289 94.1121 91.4319C94.1368 91.5244 94.1615 91.5922 94.1676 91.6138L94.1861 91.6693V91.6785L94.1892 91.6816L105.878 87.7504ZM106.042 88.3269L94.0258 91.105L106.042 88.3269ZM105.878 87.7411L94.1923 91.6878L105.878 87.7411ZM106.279 89.4585C106.195 88.8786 106.061 88.307 105.878 87.7504L94.1923 91.6816C94.1923 91.6816 94.18 91.66 94.1707 91.6292C94.1451 91.5476 94.1215 91.4653 94.0998 91.3825L94.0905 91.3363L106.279 89.4585ZM106.501 92.1503C106.482 91.2493 106.408 90.3504 106.279 89.4585L94.0905 91.3394C94.1152 91.5028 94.1522 91.8759 94.1707 92.4956L106.501 92.1503ZM106.245 98.2645C106.449 96.1864 106.553 94.0311 106.501 92.1503L94.1707 92.4956C94.2046 93.7228 94.1399 95.3477 93.9703 97.0774L106.245 98.2645ZM105.376 104.148C105.739 102.421 106.045 100.346 106.245 98.2645L93.9703 97.0774C93.8308 98.5918 93.6105 100.098 93.3105 101.588L105.376 104.148ZM105.117 105.258C105.21 104.889 105.296 104.519 105.376 104.148L93.3105 101.588C93.2643 101.806 93.2139 102.023 93.1594 102.239L105.117 105.261V105.258ZM95.0834 109.916H99.138V97.5831H95.0834V109.916ZM97.8399 108.211C97.584 108.723 97.1906 109.154 96.7038 109.455C96.2169 109.756 95.6558 109.916 95.0834 109.916V97.5831C93.3658 97.5832 91.6822 98.0614 90.2211 98.9643C88.76 99.8673 87.5791 101.159 86.8108 102.695L97.8399 108.214V108.211ZM94.7565 114.378L97.8399 108.211L86.8108 102.695L83.7275 108.862L94.7565 114.381V114.378ZM95.0834 113C95.0829 113.478 94.971 113.95 94.7565 114.378L83.7275 108.862C83.0848 110.147 82.7501 111.563 82.75 113H95.0834ZM95.0834 119.166V113H82.75V119.166H95.0834ZM92 116.083C92.8178 116.083 93.6021 116.408 94.1803 116.986C94.7585 117.564 95.0834 118.349 95.0834 119.166H82.75C82.75 121.62 83.7246 123.972 85.4593 125.707C87.194 127.442 89.5468 128.416 92 128.416V116.083ZM98.1667 116.083H92V128.416H98.1667V116.083ZM92 116.083V122.25H104.333V116.083H92ZM95.0834 122.25H98.1667V109.916H95.0834V122.25ZM88.9167 113.727V116.083H101.25V113.727H88.9167ZM91.4759 107.16L89.5673 110.971L100.599 116.484L102.505 112.673L91.4728 107.16H91.4759ZM105.508 103.75H96.9858V116.083H105.508V103.75ZM112.93 110.971L111.024 107.16L99.992 112.673L101.898 116.484L112.93 110.971ZM113.583 116.083V113.727H101.25V116.083H113.583ZM104.333 122.25H107.417V109.916H104.333V122.25ZM110.5 122.25V116.083H98.1667V122.25H110.5ZM110.5 116.083H104.333V128.416H110.5V116.083ZM107.417 119.166C107.417 118.349 107.742 117.564 108.32 116.986C108.898 116.408 109.682 116.083 110.5 116.083V128.416C112.953 128.416 115.306 127.442 117.041 125.707C118.775 123.972 119.75 121.62 119.75 119.166H107.417ZM107.417 113V119.166H119.75V113H107.417ZM107.744 114.378C107.529 113.95 107.417 113.478 107.417 113H119.75C119.75 111.563 119.415 110.147 118.773 108.862L107.744 114.381V114.378ZM104.66 108.211L107.744 114.378L118.773 108.862L115.689 102.695L104.66 108.214V108.211ZM107.417 109.916C106.844 109.916 106.283 109.756 105.796 109.455C105.31 109.154 104.916 108.723 104.66 108.211L115.689 102.695C114.921 101.159 113.74 99.8673 112.279 98.9643C110.818 98.0614 109.134 97.5832 107.417 97.5831V109.916ZM105.456 109.916H107.417V97.5831H105.456V109.916ZM100.109 97.6725C99.9555 99.3048 99.7219 100.929 99.4093 102.538L111.502 104.962C111.881 103.081 112.18 100.953 112.384 98.8565L100.109 97.6725ZM100.334 92.3229C100.366 94.109 100.291 95.8954 100.109 97.6725L112.384 98.8596C112.6 96.6088 112.726 94.1822 112.661 91.9745L100.334 92.3229ZM100.334 92.2459V92.3291L112.665 91.9684V91.882L100.331 92.2459H100.334ZM135.167 114.754C135.167 107.888 131.297 102.008 126.62 97.5399C121.85 92.9889 115.532 89.1872 108.897 86.3844L104.099 97.7434C109.757 100.136 114.69 103.201 118.1 106.46C121.6 109.802 122.833 112.673 122.833 114.757H135.167V114.754ZM135.167 131.5V114.757H122.833V131.5H135.167ZM18 137.666H129V125.333H18V137.666ZM11.8334 114.757V131.5H24.1667V114.757H11.8334ZM39.8917 85.6537C32.874 88.4102 26.1339 92.2674 21.031 96.9356C16.039 101.499 11.8334 107.592 11.8334 114.757H24.1667C24.1667 112.574 25.5234 109.537 29.3529 106.035C33.0714 102.637 38.4025 99.4886 44.3995 97.136L39.8917 85.6506V85.6537ZM35.979 91.5059C36.019 93.7012 36.2256 96.0969 36.5031 98.3416L48.744 96.8154C48.5058 94.9791 48.3617 93.1318 48.3123 91.2808L35.979 91.5059ZM36.5031 98.3416C36.8084 100.771 37.2246 103.238 37.7056 105.332L49.7306 102.581C49.309 100.676 48.9797 98.7521 48.744 96.8154L36.5031 98.3416ZM37.7056 105.332C37.8105 105.788 37.9215 106.241 38.0386 106.688L49.9619 103.537C49.8848 103.241 49.8077 102.92 49.7275 102.581L37.7056 105.332ZM45.75 113C45.7566 112.188 46.085 111.413 46.6631 110.843C47.2413 110.274 48.0219 109.957 48.8334 109.963V122.296C53.8746 122.296 58.0834 118.201 58.0834 113H45.75ZM48.8334 116.037C47.1129 116.037 45.75 114.662 45.75 113H58.0834C58.0866 111.782 57.8499 110.575 57.3868 109.449C56.9236 108.323 56.2431 107.299 55.3842 106.435C54.5252 105.572 53.5045 104.887 52.3805 104.418C51.2565 103.949 50.0512 103.706 48.8334 103.704V116.037ZM51.9167 113C51.9102 113.811 51.5818 114.587 51.0036 115.156C50.4255 115.726 49.6449 116.043 48.8334 116.037V103.704C43.7921 103.704 39.5834 107.798 39.5834 113H51.9167ZM48.8334 109.963C50.5539 109.963 51.9167 111.338 51.9167 113H39.5834C39.5801 114.218 39.8168 115.424 40.28 116.55C40.7431 117.677 41.4236 118.701 42.2826 119.564C43.1416 120.427 44.1622 121.113 45.2862 121.582C46.4102 122.05 47.6156 122.293 48.8334 122.296V109.963Z" fill="white"/>
</g>
<path d="M39.5834 64.197C39.5834 78.4975 64.2192 82.1667 64.2192 82.1667C64.2192 82.1667 48.1057 54.4783 56.5417 49.7115C64.9777 44.9416 85.6885 36.6721 87.375 39.9743C102.9 63.4447 84.4675 82.1667 84.4675 82.1667C84.4675 82.1667 107.417 79.9652 107.417 64.197C107.417 48.4258 96.6158 30.2372 96.6158 30.2372C96.6158 30.2372 88.855 20.5 73.6696 20.5C58.4811 20.5 53.0822 30.2372 53.0822 30.2372C53.0822 30.2372 39.5834 49.8934 39.5834 64.197Z" fill="white"/>
</svg>
