<svg width="54" height="54" viewBox="0 0 54 54" fill="none" xmlns="http://www.w3.org/2000/svg">
<g clip-path="url(#clip0)">
<path d="M51.0321 53.7749C52.671 53.7749 54 52.446 54 50.807V2.9679C54 1.32861 52.671 0 51.0321 0H3.19324C1.55374 0 0.225342 1.32861 0.225342 2.9679V50.807C0.225342 52.446 1.55374 53.7749 3.19324 53.7749H51.0321Z" fill="#395185"/>
<path d="M37.3286 53.7743V32.9499H44.3187L45.3652 24.8343H37.3286V19.6526C37.3286 17.3029 37.9813 15.7017 41.3508 15.7017L45.6484 15.6998V8.44125C44.9048 8.34232 42.3538 8.12134 39.3862 8.12134C33.1899 8.12134 28.948 11.9034 28.948 18.8492V24.8343H21.9401V32.9499H28.948V53.7743H37.3286Z" fill="white"/>
</g>
<defs>
<clipPath id="clip0">
<rect width="53.7746" height="53.7746" fill="white" transform="translate(0.225342)"/>
</clipPath>
</defs>
</svg>
