<svg width="258" height="258" viewBox="0 0 258 258" fill="none" xmlns="http://www.w3.org/2000/svg">
<path d="M129 257.997L0 180.597V77.397L129 154.797V257.997Z" fill="#89664C"/>
<path d="M129 154.797V257.997L258 180.597V77.397L129 154.797Z" fill="#FED0AC"/>
<path d="M0 77.4L129 154.8L258 77.4L129 0L0 77.4Z" fill="#D3976E"/>
<path d="M205.191 108.847L76.5938 31.4468L52.4062 45.9593L181.406 123.359L205.191 108.847Z" fill="#89664C"/>
<path d="M158.427 27.4143L129.805 9.67676L106.021 24.1893L134.643 41.5236L158.427 27.4143Z" fill="#D0D0D0"/>
<path d="M204.788 109.245L182.213 122.951V160.039L204.788 146.333V109.245Z" fill="#D3976E"/>
<path d="M251.957 89.0898L228.978 102.796V139.884L251.957 126.177V89.0898Z" fill="white"/>
<path d="M167.702 175.36L136.661 193.904V244.698L167.702 225.751V175.36Z" fill="white"/>
<path d="M182.213 226.153L204.788 212.447V175.359L182.213 189.066V226.153Z" fill="#D3976E"/>
</svg>
