<svg width="23" height="23" viewBox="0 0 23 23" fill="none" xmlns="http://www.w3.org/2000/svg">
<g clip-path="url(#clip0)">
<path d="M21.7306 23.0001C22.4316 23.0001 23 22.4317 23 21.7307V1.2694C23 0.568262 22.4316 0 21.7306 0H1.2694C0.568172 0 0 0.568262 0 1.2694V21.7307C0 22.4317 0.568172 23.0001 1.2694 23.0001H21.7306Z" fill="#395185"/>
<path d="M15.8695 22.9999V14.0931H18.8592L19.3068 10.622H15.8695V8.40569C15.8695 7.4007 16.1486 6.71582 17.5898 6.71582L19.4279 6.71501V3.61046C19.1099 3.56815 18.0188 3.47363 16.7495 3.47363C14.0993 3.47363 12.285 5.09127 12.285 8.06204V10.622H9.2876V14.0931H12.285V22.9999H15.8695Z" fill="white"/>
</g>
<defs>
<clipPath id="clip0">
<rect width="23" height="23" fill="white"/>
</clipPath>
</defs>
</svg>
