<svg width="23" height="23" viewBox="0 0 23 23" fill="none" xmlns="http://www.w3.org/2000/svg">
<g clip-path="url(#clip0)">
<path d="M19.5961 19.5969H16.1882V14.2599C16.1882 12.9873 16.1655 11.349 14.4158 11.349C12.6408 11.349 12.3693 12.7356 12.3693 14.1673V19.5966H8.96148V8.6216H12.233V10.1215H12.2788C12.6062 9.56164 13.0793 9.10111 13.6477 8.78891C14.2161 8.4767 14.8586 8.32452 15.5067 8.34857C18.9607 8.34857 19.5975 10.6205 19.5975 13.5762L19.5961 19.5969ZM5.11616 7.12148C4.02393 7.12166 3.13834 6.23634 3.13816 5.14411C3.13798 4.05188 4.02321 3.16629 5.11545 3.16611C6.20768 3.16584 7.09327 4.05116 7.09344 5.14339C7.09354 5.6679 6.88528 6.17097 6.51447 6.54193C6.14366 6.91289 5.64068 7.12136 5.11616 7.12148ZM6.82014 19.597H3.40868V8.6216H6.82005V19.5969L6.82014 19.597ZM21.295 0.00118568H1.69626C0.769973 -0.0092362 0.0103438 0.732783 -0.000976562 1.65907V21.3396C0.00998437 22.2664 0.769523 23.0091 1.69617 22.9994H21.295C22.2237 23.0109 22.9862 22.2682 22.999 21.3396V1.65755C22.9858 0.729459 22.2232 -0.0124706 21.295 -0.000341666" fill="#0A66C2"/>
</g>
<defs>
<clipPath id="clip0">
<rect width="23" height="23" fill="white"/>
</clipPath>
</defs>
</svg>
