<svg width="24" height="19" viewBox="0 0 24 19" fill="none" xmlns="http://www.w3.org/2000/svg">
<g clip-path="url(#clip0)">
<path d="M23.2727 2.31362C22.4164 2.69334 21.4962 2.94998 20.5304 3.06543C21.5163 2.47453 22.2733 1.5388 22.6297 0.423889C21.6925 0.980057 20.6671 1.37191 19.5978 1.58253C18.7268 0.654616 17.486 0.074707 16.1126 0.074707C13.4757 0.074707 11.3378 2.21253 11.3378 4.84925C11.3378 5.22353 11.3801 5.58789 11.4615 5.93743C7.49327 5.73825 3.97509 3.83743 1.62009 0.948707C1.20918 1.65389 0.973727 2.47416 0.973727 3.34907C0.973727 5.00562 1.81673 6.46698 3.09782 7.32325C2.33959 7.29951 1.59804 7.09472 0.935091 6.72598C0.934818 6.74598 0.934818 6.76598 0.934818 6.78607C0.934818 9.09943 2.58064 11.0293 4.76482 11.4679C4.06172 11.6591 3.32421 11.6871 2.60864 11.5497C3.21618 13.4466 4.97955 14.827 7.06882 14.8656C5.43473 16.1462 3.37591 16.9095 1.139 16.9095C0.753546 16.9095 0.373545 16.8869 0 16.8428C2.113 18.1975 4.62273 18.988 7.31909 18.988C16.1015 18.988 20.904 11.7124 20.904 5.40298C20.904 5.19589 20.8995 4.98998 20.8902 4.78525C21.8249 4.10951 22.6317 3.27254 23.2727 2.31362Z" fill="#55ACEE"/>
</g>
<defs>
<clipPath id="clip0">
<rect width="23.2727" height="19" fill="white"/>
</clipPath>
</defs>
</svg>
